<svg xmlns="http://www.w3.org/2000/svg"
    xmlns:xlink="http://www.w3.org/1999/xlink" viewBox="0,0,256,256" width="192px" height="192px">
    <g fill="#f05654" fill-rule="nonzero" stroke="none" stroke-width="1" stroke-linecap="butt" stroke-linejoin="miter" stroke-miterlimit="10" stroke-dasharray="" stroke-dashoffset="0" font-family="none" font-weight="none" font-size="none" text-anchor="none" style="mix-blend-mode: normal">
        <g transform="scale(10.66667,10.66667)">
            <path d="M5.414,21.414c0.287,-0.287 1.942,-1.942 2.801,-2.801c-1.142,-0.719 -2.109,-1.686 -2.828,-2.828c-0.859,0.859 -2.514,2.514 -2.801,2.801c-0.781,0.781 -0.781,2.047 0,2.828c0.781,0.781 2.047,0.781 2.828,0z"></path>
            <circle cx="13" cy="11" r="9" opacity="0.35"></circle>
            <path d="M20,11c0,-3.86 -3.14,-7 -7,-7c-2.757,0 -5,2.243 -5,5c0,2.757 2.243,5 5,5c1.654,0 3,-1.346 3,-3c0,-1.654 -1.346,-3 -3,-3c-0.551,0 -1,0.449 -1,1c0,0.551 0.449,1 1,1c0.552,0 1,0.448 1,1c0,0.552 -0.448,1 -1,1c-1.654,0 -3,-1.346 -3,-3c0,-1.654 1.346,-3 3,-3c2.757,0 5,2.243 5,5c0,2.757 -2.243,5 -5,5c-3.86,0 -7,-3.14 -7,-7c0,-3.86 3.14,-7 7,-7c4.962,0 9,4.038 9,9c0,4.962 -4.038,9 -9,9c0,0 7,-2.04 7,-9z"></path>
        </g>
    </g>
</svg>