<svg xmlns="http://www.w3.org/2000/svg"
    xmlns:xlink="http://www.w3.org/1999/xlink" viewBox="0,0,256,256" width="18px" height="18px">
    <g fill="#eeeeee" fill-rule="nonzero" stroke="none" stroke-width="1" stroke-linecap="butt" stroke-linejoin="miter" stroke-miterlimit="10" stroke-dasharray="" stroke-dashoffset="0" font-family="none" font-weight="none" font-size="none" text-anchor="none" style="mix-blend-mode: normal">
        <g transform="scale(10.66667,10.66667)">
            <path d="M15.352,22h-6.704c-1.513,0 -2.789,-1.127 -2.977,-2.628l-1.671,-13.372h16l-1.672,13.372c-0.187,1.501 -1.463,2.628 -2.976,2.628z" opacity="0.35"></path>
            <path d="M16,4h-8v-1c0,-0.552 0.448,-1 1,-1h6c0.552,0 1,0.448 1,1z"></path>
            <path d="M19,3c-0.601,0 -13.399,0 -14,0c-1.105,0 -2,0.895 -2,2c0,1.105 0.895,2 2,2c0.601,0 13.399,0 14,0c1.105,0 2,-0.895 2,-2c0,-1.105 -0.895,-2 -2,-2z"></path>
            <path d="M22.5,24c-0.384,0 -0.768,-0.146 -1.061,-0.439l-6,-6c-0.586,-0.585 -0.586,-1.536 0,-2.121c0.586,-0.586 1.535,-0.586 2.121,0l6,6c0.586,0.585 0.586,1.536 0,2.121c-0.292,0.293 -0.676,0.439 -1.06,0.439z"></path>
            <path d="M16.5,24c-0.384,0 -0.768,-0.146 -1.061,-0.439c-0.586,-0.585 -0.586,-1.536 0,-2.121l6,-6c0.586,-0.586 1.535,-0.586 2.121,0c0.586,0.585 0.586,1.536 0,2.121l-6,6c-0.292,0.293 -0.676,0.439 -1.06,0.439z"></path>
        </g>
    </g>
</svg>