<svg xmlns="http://www.w3.org/2000/svg" xmlns:xlink="http://www.w3.org/1999/xlink" viewBox="0,0,256,256" width="18px" height="18px"><g fill="#eeeeee" fill-rule="nonzero" stroke="none" stroke-width="1" stroke-linecap="butt" stroke-linejoin="miter" stroke-miterlimit="10" stroke-dasharray="" stroke-dashoffset="0" font-family="none" font-weight="none" font-size="none" text-anchor="none" style="mix-blend-mode: normal"><g transform="scale(10.66667,10.66667)"><path d="M16.667,15.489c2.016,-1.453 3.333,-3.814 3.333,-6.489c0,-4.418 -3.582,-8 -8,-8c-4.418,0 -8,3.582 -8,8c0,2.675 1.317,5.036 3.333,6.489l0.643,2.511h8.048z" opacity="0.35"></path><path d="M11.329,22v0c-0.001,0 0,0 0,0z" opacity="0.35"></path><path d="M15.577,19.744l0.447,-1.744h-8.048l0.446,1.744c0.34,1.327 1.536,2.256 2.906,2.256h1.343c1.371,0 2.567,-0.929 2.906,-2.256z"></path><circle cx="21" cy="2" r="1"></circle><circle cx="3" cy="2" r="1"></circle><circle cx="21" cy="16" r="1"></circle><circle cx="3" cy="16" r="1"></circle><circle cx="23" cy="9" r="1"></circle><circle cx="1" cy="9" r="1"></circle></g></g></svg>