<svg xmlns="http://www.w3.org/2000/svg"
    xmlns:xlink="http://www.w3.org/1999/xlink" viewBox="0,0,256,256" width="32px" height="32px">
    <g fill="#339af0" fill-rule="nonzero" stroke="none" stroke-width="1" stroke-linecap="butt" stroke-linejoin="miter" stroke-miterlimit="10" stroke-dasharray="" stroke-dashoffset="0" font-family="none" font-weight="none" font-size="none" text-anchor="none" style="mix-blend-mode: normal">
        <g transform="scale(10.66667,10.66667)">
            <path d="M18,21h-12c-1.657,0 -3,-1.343 -3,-3v-12c0,-1.657 1.343,-3 3,-3h12c1.657,0 3,1.343 3,3v12c0,1.657 -1.343,3 -3,3z" opacity="0.35"></path>
            <circle cx="12" cy="9" r="3"></circle>
            <path d="M15,14h-6c-1.105,0 -2,0.895 -2,2c0,1.105 0.895,2 2,2h6c1.105,0 2,-0.895 2,-2c0,-1.105 -0.895,-2 -2,-2z"></path>
        </g>
    </g>
</svg>