<svg xmlns="http://www.w3.org/2000/svg"
    xmlns:xlink="http://www.w3.org/1999/xlink" viewBox="0,0,256,256" width="32px" height="32px">
    <g fill="#eeeeee" fill-rule="nonzero" stroke="none" stroke-width="1" stroke-linecap="butt" stroke-linejoin="miter" stroke-miterlimit="10" stroke-dasharray="" stroke-dashoffset="0" font-family="none" font-weight="none" font-size="none" text-anchor="none" style="mix-blend-mode: normal">
        <g transform="scale(10.66667,10.66667)">
            <path d="M22.042,17.128v-9c0,-1.657 -1.343,-3 -3,-3h-11.778c0.479,0.532 0.779,1.228 0.779,2v6.493c0,0.763 -0.827,1.303 -1.486,0.917c-0.444,-0.26 -0.962,-0.41 -1.514,-0.41c-1.657,0 -3,1.343 -3,3c0,1.657 1.343,3 3,3h14c1.656,0 2.999,-1.343 2.999,-3z" opacity="0.35"></path>
            <path d="M19.923,8.618c-0.101,-0.245 -0.296,-0.44 -0.541,-0.541c-0.122,-0.05 -0.252,-0.077 -0.382,-0.077h-2.586c-0.891,0 -1.337,1.077 -0.707,1.707l0.586,0.586l-1.293,1.293l-1.293,-1.293c-0.391,-0.391 -1.023,-0.391 -1.414,0l-2,2c-0.391,0.391 -0.391,1.023 0,1.414c0.391,0.391 1.023,0.391 1.414,0l1.293,-1.293l1.293,1.293c0.195,0.195 0.451,0.293 0.707,0.293c0.256,0 0.512,-0.098 0.707,-0.293l2,-2l0.586,0.586c0.63,0.63 1.707,0.184 1.707,-0.707v-2.586c0,-0.13 -0.027,-0.26 -0.077,-0.382z"></path>
            <path d="M5.042,14.128c0.552,0 1.07,0.149 1.514,0.41c0.659,0.386 1.486,-0.154 1.486,-0.917v-6.493c0,-1.657 -1.343,-3 -3,-3c-1.657,0 -3,1.343 -3,3v10c0,-1.657 1.343,-3 3,-3z"></path>
            <path d="M19,17h-8c-0.552,0 -1,-0.448 -1,-1v0c0,-0.552 0.448,-1 1,-1h8c0.552,0 1,0.448 1,1v0c0,0.552 -0.448,1 -1,1z"></path>
        </g>
    </g>
</svg>