<svg xmlns="http://www.w3.org/2000/svg" xmlns:xlink="http://www.w3.org/1999/xlink" viewBox="0,0,256,256" width="32px" height="32px"><g fill="#39a5db" fill-rule="nonzero" stroke="none" stroke-width="1" stroke-linecap="butt" stroke-linejoin="miter" stroke-miterlimit="10" stroke-dasharray="" stroke-dashoffset="0" font-family="none" font-weight="none" font-size="none" text-anchor="none" style="mix-blend-mode: normal"><g transform="scale(10.66667,10.66667)"><path d="M19.043,13.399v-7.803c0,-1.437 -1.145,-2.601 -2.556,-2.601h-10.038c0.408,0.461 0.664,1.065 0.664,1.734v5.629c0,0.662 -0.705,1.129 -1.266,0.795c-0.379,-0.226 -0.82,-0.355 -1.29,-0.355c-1.412,0 -2.557,1.164 -2.557,2.601c0,1.437 1.145,2.601 2.556,2.601h11.93c1.412,0 2.557,-1.165 2.557,-2.601z" opacity="0.35"></path><path d="M18.94,5.046c0.038,0.177 0.06,0.361 0.06,0.55v7.803c0,1.436 -1.145,2.601 -2.556,2.601h-11.93c-0.17,0 -0.336,-0.019 -0.497,-0.051c0.249,1.172 1.271,2.051 2.497,2.051h11.93c1.411,0 2.556,-1.165 2.556,-2.601v-7.803c0,-1.264 -0.886,-2.315 -2.06,-2.55z"></path><path d="M20.94,7.046c0.038,0.177 0.06,0.361 0.06,0.55v7.803c0,1.436 -1.145,2.601 -2.556,2.601h-11.93c-0.17,0 -0.336,-0.019 -0.497,-0.051c0.249,1.172 1.271,2.051 2.497,2.051h11.93c1.411,0 2.556,-1.165 2.556,-2.601v-7.803c0,-1.264 -0.886,-2.315 -2.06,-2.55z" opacity="0.35"></path><path d="M15.923,5.618c-0.101,-0.245 -0.296,-0.44 -0.541,-0.541c-0.122,-0.05 -0.252,-0.077 -0.382,-0.077h-2.586c-0.891,0 -1.337,1.077 -0.707,1.707l0.586,0.586l-2,2c-0.391,0.391 -0.391,1.023 0,1.414c0.195,0.195 0.451,0.293 0.707,0.293c0.256,0 0.512,-0.098 0.707,-0.293l2,-2l0.586,0.586c0.63,0.63 1.707,0.184 1.707,-0.707v-2.586c0,-0.13 -0.027,-0.26 -0.077,-0.382z"></path><path d="M4.556,10.798c0.471,0 0.912,0.129 1.29,0.355c0.561,0.334 1.266,-0.133 1.266,-0.795v-5.629c0,-1.437 -1.145,-2.601 -2.556,-2.601c-1.411,0 -2.556,1.164 -2.556,2.601v8.67c0,-1.437 1.145,-2.601 2.556,-2.601z"></path><path d="M15,14h-5c-0.552,0 -1,-0.448 -1,-1v0c0,-0.552 0.448,-1 1,-1h5c0.552,0 1,0.448 1,1v0c0,0.552 -0.448,1 -1,1z"></path></g></g></svg>