<svg xmlns="http://www.w3.org/2000/svg" xmlns:xlink="http://www.w3.org/1999/xlink" viewBox="0,0,256,256" width="32px" height="32px"><g fill="#eeeeee" fill-rule="nonzero" stroke="none" stroke-width="1" stroke-linecap="butt" stroke-linejoin="miter" stroke-miterlimit="10" stroke-dasharray="" stroke-dashoffset="0" font-family="none" font-weight="none" font-size="none" text-anchor="none" style="mix-blend-mode: normal"><g transform="scale(10.66667,10.66667)"><path d="M18,21h-12c-1.657,0 -3,-1.343 -3,-3v-12c0,-1.657 1.343,-3 3,-3h10.757c0.796,0 1.559,0.316 2.121,0.879l1.243,1.243c0.563,0.562 0.879,1.325 0.879,2.121v10.757c0,1.657 -1.343,3 -3,3z" opacity="0.35"></path><path d="M15,3v0c-0.552,0 -1,0.448 -1,1v2c0,0.552 -0.448,1 -1,1v0c-0.552,0 -1,-0.448 -1,-1v-2c0,-0.552 -0.448,-1 -1,-1h-2c-0.552,0 -1,0.448 -1,1v4c0,0.552 0.448,1 1,1h6c0.552,0 1,-0.448 1,-1v-4c0,-0.552 -0.448,-1 -1,-1z"></path><path d="M18,14c0,-1.105 -0.895,-2 -2,-2h-8c-1.105,0 -2,0.895 -2,2v7h12z"></path></g></g></svg>