<svg xmlns="http://www.w3.org/2000/svg"
    xmlns:xlink="http://www.w3.org/1999/xlink" viewBox="0,0,256,256" width="18px" height="18px">
    <g fill="#eeeeee" fill-rule="nonzero" stroke="none" stroke-width="1" stroke-linecap="butt" stroke-linejoin="miter" stroke-miterlimit="10" stroke-dasharray="" stroke-dashoffset="0" font-family="none" font-weight="none" font-size="none" text-anchor="none" style="mix-blend-mode: normal">
        <g transform="scale(10.66667,10.66667)">
            <path d="M16,18.928c0.678,-0.391 1.459,-0.424 2.135,-0.164c0.564,0.217 1.209,0.037 1.592,-0.43c0.683,-0.833 1.234,-1.778 1.621,-2.805c0.221,-0.587 0.012,-1.232 -0.467,-1.638c-0.539,-0.454 -0.881,-1.13 -0.881,-1.891c0,-0.761 0.342,-1.437 0.88,-1.893c0.479,-0.406 0.689,-1.05 0.467,-1.638c-0.387,-1.026 -0.937,-1.972 -1.621,-2.805c-0.383,-0.467 -1.028,-0.647 -1.592,-0.43c-0.675,0.262 -1.456,0.229 -2.134,-0.162c-0.68,-0.393 -1.1,-1.056 -1.21,-1.775c-0.09,-0.588 -0.556,-1.058 -1.143,-1.158c-0.536,-0.091 -1.086,-0.139 -1.647,-0.139c-0.561,0 -1.111,0.048 -1.647,0.139c-0.587,0.1 -1.052,0.57 -1.143,1.158c-0.11,0.719 -0.53,1.382 -1.21,1.775c-0.678,0.391 -1.459,0.424 -2.135,0.163c-0.564,-0.217 -1.209,-0.037 -1.592,0.43c-0.683,0.833 -1.233,1.778 -1.62,2.805c-0.222,0.587 -0.012,1.232 0.467,1.637c0.538,0.456 0.88,1.132 0.88,1.893c0,0.761 -0.342,1.437 -0.88,1.893c-0.479,0.406 -0.689,1.05 -0.467,1.638c0.387,1.026 0.937,1.972 1.621,2.805c0.383,0.467 1.028,0.647 1.592,0.43c0.675,-0.262 1.456,-0.229 2.134,0.162c0.68,0.393 1.1,1.056 1.21,1.775c0.09,0.588 0.556,1.058 1.143,1.158c0.536,0.091 1.086,0.139 1.647,0.139c0.561,0 1.111,-0.048 1.647,-0.139c0.587,-0.099 1.053,-0.569 1.143,-1.158c0.11,-0.719 0.53,-1.382 1.21,-1.775z" opacity="0.35"></path>
            <path d="M12,8c-2.209,0 -4,1.791 -4,4c0,2.209 1.791,4 4,4c2.209,0 4,-1.791 4,-4c0,-2.209 -1.791,-4 -4,-4z"></path>
        </g>
    </g>
</svg>