<svg xmlns="http://www.w3.org/2000/svg" xmlns:xlink="http://www.w3.org/1999/xlink" viewBox="0,0,256,256" width="32px" height="32px"><g fill="#339af0" fill-rule="nonzero" stroke="none" stroke-width="1" stroke-linecap="butt" stroke-linejoin="miter" stroke-miterlimit="10" stroke-dasharray="" stroke-dashoffset="0" font-family="none" font-weight="none" font-size="none" text-anchor="none" style="mix-blend-mode: normal"><g transform="scale(10.66667,10.66667)"><path d="M20,5c0,-1.657 -1.343,-3 -3,-3h-10c-1.657,0 -3,1.343 -3,3v14c0,1.657 1.343,3 3,3h10c1.657,0 3,-1.343 3,-3z" opacity="0.35"></path><path d="M14.5,4h-5c-0.829,0 -1.5,-0.672 -1.5,-1.5c0,-0.828 0.671,-1.5 1.5,-1.5h5c0.829,0 1.5,0.672 1.5,1.5c0,0.828 -0.671,1.5 -1.5,1.5z"></path><path d="M16.138,8.376c-0.827,-0.595 -1.987,-0.42 -2.707,0.3l-5.832,5.832c-0.383,0.384 -0.599,0.904 -0.599,1.447v1.259c0,0.434 0.352,0.786 0.786,0.786h1.259c0.542,0 1.063,-0.216 1.446,-0.599l5.909,-5.909c0.879,-0.879 0.792,-2.357 -0.262,-3.116z"></path></g></g></svg>